<mxfile host="app.diagrams.net" modified="2023-08-29T11:27:53.429Z" agent="Mozilla/5.0 (Windows NT 10.0; Win64; x64) AppleWebKit/537.36 (KHTML, like Gecko) Chrome/116.0.0.0 Safari/537.36" etag="K0M1b4Qg5VNaWaaVj7FQ" version="21.6.9" type="device">
  <diagram name="Página-1" id="_t-F1xUSra4NGisfSsUV">
    <mxGraphModel dx="1050" dy="574" grid="1" gridSize="10" guides="1" tooltips="1" connect="1" arrows="1" fold="1" page="1" pageScale="1" pageWidth="827" pageHeight="1169" math="0" shadow="0">
      <root>
        <mxCell id="0" />
        <mxCell id="1" parent="0" />
        <mxCell id="7lWMfeAzXK6b4mvwgBv6-11" value="Morcego" style="swimlane;fontStyle=1;align=center;verticalAlign=top;childLayout=stackLayout;horizontal=1;startSize=26;horizontalStack=0;resizeParent=1;resizeParentMax=0;resizeLast=0;collapsible=1;marginBottom=0;whiteSpace=wrap;html=1;" vertex="1" parent="1">
          <mxGeometry x="330" y="250" width="160" height="180" as="geometry" />
        </mxCell>
        <mxCell id="7lWMfeAzXK6b4mvwgBv6-12" value="+ Tamanho: decimal&lt;br&gt;+ Alimento: string&lt;br&gt;+ Peso: decimal&lt;br&gt;+ Cor: string" style="text;strokeColor=none;fillColor=none;align=left;verticalAlign=top;spacingLeft=4;spacingRight=4;overflow=hidden;rotatable=0;points=[[0,0.5],[1,0.5]];portConstraint=eastwest;whiteSpace=wrap;html=1;" vertex="1" parent="7lWMfeAzXK6b4mvwgBv6-11">
          <mxGeometry y="26" width="160" height="64" as="geometry" />
        </mxCell>
        <mxCell id="7lWMfeAzXK6b4mvwgBv6-13" value="" style="line;strokeWidth=1;fillColor=none;align=left;verticalAlign=middle;spacingTop=-1;spacingLeft=3;spacingRight=3;rotatable=0;labelPosition=right;points=[];portConstraint=eastwest;strokeColor=inherit;" vertex="1" parent="7lWMfeAzXK6b4mvwgBv6-11">
          <mxGeometry y="90" width="160" height="8" as="geometry" />
        </mxCell>
        <mxCell id="7lWMfeAzXK6b4mvwgBv6-14" value="+ Comer( ): void&lt;br&gt;+ Dormir( ): void&lt;br&gt;+ Voar( ): void&lt;br&gt;+ Ecolocalizar( ): void&lt;br&gt;+ Caçar( ): void&amp;nbsp;" style="text;strokeColor=none;fillColor=none;align=left;verticalAlign=top;spacingLeft=4;spacingRight=4;overflow=hidden;rotatable=0;points=[[0,0.5],[1,0.5]];portConstraint=eastwest;whiteSpace=wrap;html=1;" vertex="1" parent="7lWMfeAzXK6b4mvwgBv6-11">
          <mxGeometry y="98" width="160" height="82" as="geometry" />
        </mxCell>
      </root>
    </mxGraphModel>
  </diagram>
</mxfile>
